<mxfile host="app.diagrams.net" modified="2021-02-22T07:10:46.985Z" agent="5.0 (Windows)" etag="1I3007jAjoVWk5_Nwknw" version="14.4.2" type="github">
  <diagram id="Vjg2m3wscV5dM73zTovs" name="Page-1">
    <mxGraphModel dx="1711" dy="890" grid="1" gridSize="10" guides="1" tooltips="1" connect="1" arrows="1" fold="1" page="1" pageScale="1" pageWidth="827" pageHeight="1169" math="0" shadow="0">
      <root>
        <mxCell id="0" />
        <mxCell id="1" parent="0" />
        <mxCell id="M9mfOsk55cMnhq7tO-Bw-17" value="" style="rounded=0;whiteSpace=wrap;html=1;" vertex="1" parent="1">
          <mxGeometry x="80" y="600" width="860" height="540" as="geometry" />
        </mxCell>
        <mxCell id="M9mfOsk55cMnhq7tO-Bw-20" value="" style="rounded=0;whiteSpace=wrap;html=1;" vertex="1" parent="1">
          <mxGeometry x="80" y="600" width="860" height="90" as="geometry" />
        </mxCell>
        <mxCell id="M9mfOsk55cMnhq7tO-Bw-5" style="edgeStyle=orthogonalEdgeStyle;rounded=0;orthogonalLoop=1;jettySize=auto;html=1;exitX=1;exitY=0.5;exitDx=0;exitDy=0;entryX=0;entryY=0.5;entryDx=0;entryDy=0;" edge="1" parent="1" source="M9mfOsk55cMnhq7tO-Bw-1" target="M9mfOsk55cMnhq7tO-Bw-2">
          <mxGeometry relative="1" as="geometry" />
        </mxCell>
        <mxCell id="M9mfOsk55cMnhq7tO-Bw-6" style="edgeStyle=orthogonalEdgeStyle;rounded=0;orthogonalLoop=1;jettySize=auto;html=1;exitX=1;exitY=0.5;exitDx=0;exitDy=0;entryX=0;entryY=0.5;entryDx=0;entryDy=0;" edge="1" parent="1" source="M9mfOsk55cMnhq7tO-Bw-1" target="M9mfOsk55cMnhq7tO-Bw-3">
          <mxGeometry relative="1" as="geometry" />
        </mxCell>
        <mxCell id="M9mfOsk55cMnhq7tO-Bw-1" value="&lt;div&gt;메인 페이지&lt;/div&gt;" style="rounded=1;whiteSpace=wrap;html=1;" vertex="1" parent="1">
          <mxGeometry x="80" y="400" width="120" height="60" as="geometry" />
        </mxCell>
        <mxCell id="M9mfOsk55cMnhq7tO-Bw-7" style="edgeStyle=orthogonalEdgeStyle;rounded=0;orthogonalLoop=1;jettySize=auto;html=1;exitX=1;exitY=0.5;exitDx=0;exitDy=0;entryX=0;entryY=0.5;entryDx=0;entryDy=0;" edge="1" parent="1" source="M9mfOsk55cMnhq7tO-Bw-2" target="M9mfOsk55cMnhq7tO-Bw-4">
          <mxGeometry relative="1" as="geometry" />
        </mxCell>
        <mxCell id="M9mfOsk55cMnhq7tO-Bw-2" value="회원가입" style="rounded=1;whiteSpace=wrap;html=1;" vertex="1" parent="1">
          <mxGeometry x="280" y="160" width="120" height="60" as="geometry" />
        </mxCell>
        <mxCell id="M9mfOsk55cMnhq7tO-Bw-13" value="" style="edgeStyle=orthogonalEdgeStyle;rounded=0;orthogonalLoop=1;jettySize=auto;html=1;" edge="1" parent="1" source="M9mfOsk55cMnhq7tO-Bw-3" target="M9mfOsk55cMnhq7tO-Bw-12">
          <mxGeometry relative="1" as="geometry" />
        </mxCell>
        <mxCell id="M9mfOsk55cMnhq7tO-Bw-3" value="비로그인" style="rounded=1;whiteSpace=wrap;html=1;" vertex="1" parent="1">
          <mxGeometry x="480" y="400" width="120" height="60" as="geometry" />
        </mxCell>
        <mxCell id="M9mfOsk55cMnhq7tO-Bw-14" value="" style="edgeStyle=orthogonalEdgeStyle;rounded=0;orthogonalLoop=1;jettySize=auto;html=1;" edge="1" parent="1" source="M9mfOsk55cMnhq7tO-Bw-4" target="M9mfOsk55cMnhq7tO-Bw-10">
          <mxGeometry relative="1" as="geometry" />
        </mxCell>
        <mxCell id="M9mfOsk55cMnhq7tO-Bw-15" style="edgeStyle=orthogonalEdgeStyle;rounded=0;orthogonalLoop=1;jettySize=auto;html=1;exitX=1;exitY=0.5;exitDx=0;exitDy=0;entryX=0;entryY=0.5;entryDx=0;entryDy=0;" edge="1" parent="1" source="M9mfOsk55cMnhq7tO-Bw-4" target="M9mfOsk55cMnhq7tO-Bw-8">
          <mxGeometry relative="1" as="geometry" />
        </mxCell>
        <mxCell id="M9mfOsk55cMnhq7tO-Bw-16" style="edgeStyle=orthogonalEdgeStyle;rounded=0;orthogonalLoop=1;jettySize=auto;html=1;exitX=1;exitY=0.5;exitDx=0;exitDy=0;entryX=0;entryY=0.5;entryDx=0;entryDy=0;" edge="1" parent="1" source="M9mfOsk55cMnhq7tO-Bw-4" target="M9mfOsk55cMnhq7tO-Bw-11">
          <mxGeometry relative="1" as="geometry" />
        </mxCell>
        <mxCell id="M9mfOsk55cMnhq7tO-Bw-4" value="로그인" style="rounded=1;whiteSpace=wrap;html=1;" vertex="1" parent="1">
          <mxGeometry x="480" y="160" width="120" height="60" as="geometry" />
        </mxCell>
        <mxCell id="M9mfOsk55cMnhq7tO-Bw-8" value="페이징 게시판" style="rounded=1;whiteSpace=wrap;html=1;" vertex="1" parent="1">
          <mxGeometry x="680" y="40" width="120" height="60" as="geometry" />
        </mxCell>
        <mxCell id="M9mfOsk55cMnhq7tO-Bw-10" value="무한 스크롤 게시판" style="rounded=1;whiteSpace=wrap;html=1;fillColor=#f5f5f5;strokeColor=#666666;fontColor=#333333;" vertex="1" parent="1">
          <mxGeometry x="680" y="160" width="120" height="60" as="geometry" />
        </mxCell>
        <mxCell id="M9mfOsk55cMnhq7tO-Bw-11" value="글쓰기" style="rounded=1;whiteSpace=wrap;html=1;" vertex="1" parent="1">
          <mxGeometry x="680" y="280" width="120" height="60" as="geometry" />
        </mxCell>
        <mxCell id="M9mfOsk55cMnhq7tO-Bw-12" value="페이징 게시판" style="rounded=1;whiteSpace=wrap;html=1;" vertex="1" parent="1">
          <mxGeometry x="680" y="400" width="120" height="60" as="geometry" />
        </mxCell>
        <mxCell id="M9mfOsk55cMnhq7tO-Bw-18" value="860 x 540" style="rounded=0;whiteSpace=wrap;html=1;" vertex="1" parent="1">
          <mxGeometry width="70" height="20" as="geometry" />
        </mxCell>
        <mxCell id="M9mfOsk55cMnhq7tO-Bw-19" value="&lt;font style=&quot;font-size: 30px&quot;&gt;Logo&lt;/font&gt;" style="text;html=1;strokeColor=none;fillColor=none;align=center;verticalAlign=middle;whiteSpace=wrap;rounded=0;fontStyle=1" vertex="1" parent="1">
          <mxGeometry x="110" y="620" width="100" height="50" as="geometry" />
        </mxCell>
        <mxCell id="M9mfOsk55cMnhq7tO-Bw-21" value="로그인" style="text;html=1;strokeColor=none;fillColor=none;align=center;verticalAlign=middle;whiteSpace=wrap;rounded=0;" vertex="1" parent="1">
          <mxGeometry x="750" y="660" width="40" height="20" as="geometry" />
        </mxCell>
        <mxCell id="M9mfOsk55cMnhq7tO-Bw-22" value="회원가입" style="text;html=1;strokeColor=none;fillColor=none;align=center;verticalAlign=middle;whiteSpace=wrap;rounded=0;" vertex="1" parent="1">
          <mxGeometry x="810" y="660" width="70" height="20" as="geometry" />
        </mxCell>
        <mxCell id="M9mfOsk55cMnhq7tO-Bw-23" value="페이징 게시판" style="text;html=1;strokeColor=none;fillColor=none;align=center;verticalAlign=middle;whiteSpace=wrap;rounded=0;" vertex="1" parent="1">
          <mxGeometry x="630" y="660" width="90" height="20" as="geometry" />
        </mxCell>
        <mxCell id="M9mfOsk55cMnhq7tO-Bw-24" value="" style="rounded=0;whiteSpace=wrap;html=1;" vertex="1" parent="1">
          <mxGeometry x="80" y="1050" width="860" height="90" as="geometry" />
        </mxCell>
        <mxCell id="M9mfOsk55cMnhq7tO-Bw-25" value="Logo" style="text;html=1;strokeColor=none;fillColor=none;align=center;verticalAlign=middle;whiteSpace=wrap;rounded=0;fontStyle=1;fontSize=30;" vertex="1" parent="1">
          <mxGeometry x="100" y="1070" width="120" height="50" as="geometry" />
        </mxCell>
        <mxCell id="M9mfOsk55cMnhq7tO-Bw-26" value="pic" style="rounded=0;whiteSpace=wrap;html=1;fontSize=30;" vertex="1" parent="1">
          <mxGeometry x="160" y="750" width="170" height="240" as="geometry" />
        </mxCell>
        <mxCell id="M9mfOsk55cMnhq7tO-Bw-27" value="Lorem Ipsum..." style="text;html=1;fillColor=none;align=center;verticalAlign=middle;whiteSpace=wrap;rounded=0;fontSize=30;dashed=1;dashPattern=1 1;strokeColor=#828282;" vertex="1" parent="1">
          <mxGeometry x="394" y="750" width="486" height="240" as="geometry" />
        </mxCell>
        <mxCell id="M9mfOsk55cMnhq7tO-Bw-28" value="로그인 전" style="rounded=0;whiteSpace=wrap;html=1;fontSize=14;gradientColor=#ffffff;" vertex="1" parent="1">
          <mxGeometry x="80" y="570" width="90" height="30" as="geometry" />
        </mxCell>
        <mxCell id="M9mfOsk55cMnhq7tO-Bw-30" value="Lorem Ipsum..." style="text;html=1;fillColor=none;align=center;verticalAlign=middle;whiteSpace=wrap;rounded=0;fontSize=30;dashed=1;dashPattern=1 1;strokeColor=#828282;" vertex="1" parent="1">
          <mxGeometry x="240" y="1065" width="640" height="60" as="geometry" />
        </mxCell>
        <mxCell id="M9mfOsk55cMnhq7tO-Bw-31" value="" style="rounded=0;whiteSpace=wrap;html=1;" vertex="1" parent="1">
          <mxGeometry x="1000" y="600" width="860" height="540" as="geometry" />
        </mxCell>
        <mxCell id="M9mfOsk55cMnhq7tO-Bw-32" value="" style="rounded=0;whiteSpace=wrap;html=1;" vertex="1" parent="1">
          <mxGeometry x="1000" y="600" width="860" height="90" as="geometry" />
        </mxCell>
        <mxCell id="M9mfOsk55cMnhq7tO-Bw-33" value="&lt;font style=&quot;font-size: 30px&quot;&gt;Logo&lt;/font&gt;" style="text;html=1;strokeColor=none;fillColor=none;align=center;verticalAlign=middle;whiteSpace=wrap;rounded=0;fontStyle=1" vertex="1" parent="1">
          <mxGeometry x="1030" y="620" width="100" height="50" as="geometry" />
        </mxCell>
        <mxCell id="M9mfOsk55cMnhq7tO-Bw-34" value="로그아웃" style="text;html=1;strokeColor=none;fillColor=none;align=center;verticalAlign=middle;whiteSpace=wrap;rounded=0;" vertex="1" parent="1">
          <mxGeometry x="1750" y="660" width="50" height="20" as="geometry" />
        </mxCell>
        <mxCell id="M9mfOsk55cMnhq7tO-Bw-36" value="페이징 게시판" style="text;html=1;strokeColor=none;fillColor=none;align=center;verticalAlign=middle;whiteSpace=wrap;rounded=0;" vertex="1" parent="1">
          <mxGeometry x="1640" y="660" width="90" height="20" as="geometry" />
        </mxCell>
        <mxCell id="M9mfOsk55cMnhq7tO-Bw-37" value="" style="rounded=0;whiteSpace=wrap;html=1;" vertex="1" parent="1">
          <mxGeometry x="1000" y="1050" width="860" height="90" as="geometry" />
        </mxCell>
        <mxCell id="M9mfOsk55cMnhq7tO-Bw-38" value="Logo" style="text;html=1;strokeColor=none;fillColor=none;align=center;verticalAlign=middle;whiteSpace=wrap;rounded=0;fontStyle=1;fontSize=30;" vertex="1" parent="1">
          <mxGeometry x="1020" y="1070" width="120" height="50" as="geometry" />
        </mxCell>
        <mxCell id="M9mfOsk55cMnhq7tO-Bw-39" value="pic" style="rounded=0;whiteSpace=wrap;html=1;fontSize=30;" vertex="1" parent="1">
          <mxGeometry x="1080" y="750" width="170" height="240" as="geometry" />
        </mxCell>
        <mxCell id="M9mfOsk55cMnhq7tO-Bw-40" value="Lorem Ipsum..." style="text;html=1;fillColor=none;align=center;verticalAlign=middle;whiteSpace=wrap;rounded=0;fontSize=30;dashed=1;dashPattern=1 1;strokeColor=#828282;" vertex="1" parent="1">
          <mxGeometry x="1314" y="750" width="486" height="240" as="geometry" />
        </mxCell>
        <mxCell id="M9mfOsk55cMnhq7tO-Bw-41" value="로그인 후" style="rounded=0;whiteSpace=wrap;html=1;fontSize=14;gradientColor=#ffffff;" vertex="1" parent="1">
          <mxGeometry x="1000" y="570" width="90" height="30" as="geometry" />
        </mxCell>
        <mxCell id="M9mfOsk55cMnhq7tO-Bw-42" value="Lorem Ipsum..." style="text;html=1;fillColor=none;align=center;verticalAlign=middle;whiteSpace=wrap;rounded=0;fontSize=30;dashed=1;dashPattern=1 1;strokeColor=#828282;" vertex="1" parent="1">
          <mxGeometry x="1160" y="1065" width="640" height="60" as="geometry" />
        </mxCell>
        <mxCell id="M9mfOsk55cMnhq7tO-Bw-43" value="스크롤 게시판" style="text;html=1;strokeColor=none;fillColor=none;align=center;verticalAlign=middle;whiteSpace=wrap;rounded=0;" vertex="1" parent="1">
          <mxGeometry x="1540" y="660" width="90" height="20" as="geometry" />
        </mxCell>
        <mxCell id="M9mfOsk55cMnhq7tO-Bw-45" value="글쓰기" style="text;html=1;strokeColor=none;fillColor=none;align=center;verticalAlign=middle;whiteSpace=wrap;rounded=0;" vertex="1" parent="1">
          <mxGeometry x="1470" y="660" width="90" height="20" as="geometry" />
        </mxCell>
        <mxCell id="M9mfOsk55cMnhq7tO-Bw-46" value="" style="rounded=0;whiteSpace=wrap;html=1;" vertex="1" parent="1">
          <mxGeometry x="80" y="1230" width="860" height="540" as="geometry" />
        </mxCell>
        <mxCell id="M9mfOsk55cMnhq7tO-Bw-47" value="" style="rounded=0;whiteSpace=wrap;html=1;" vertex="1" parent="1">
          <mxGeometry x="80" y="1230" width="860" height="90" as="geometry" />
        </mxCell>
        <mxCell id="M9mfOsk55cMnhq7tO-Bw-52" value="" style="rounded=0;whiteSpace=wrap;html=1;" vertex="1" parent="1">
          <mxGeometry x="80" y="1680" width="860" height="90" as="geometry" />
        </mxCell>
        <mxCell id="M9mfOsk55cMnhq7tO-Bw-53" value="&amp;nbsp;footer" style="text;html=1;strokeColor=none;fillColor=none;align=center;verticalAlign=middle;whiteSpace=wrap;rounded=0;fontStyle=1;fontSize=30;" vertex="1" parent="1">
          <mxGeometry x="450" y="1700" width="120" height="50" as="geometry" />
        </mxCell>
        <mxCell id="M9mfOsk55cMnhq7tO-Bw-54" value="" style="rounded=0;whiteSpace=wrap;html=1;fontSize=30;" vertex="1" parent="1">
          <mxGeometry x="100" y="1340" width="820" height="280" as="geometry" />
        </mxCell>
        <mxCell id="M9mfOsk55cMnhq7tO-Bw-56" value="페이징 게시판" style="rounded=0;whiteSpace=wrap;html=1;fontSize=14;gradientColor=#ffffff;" vertex="1" parent="1">
          <mxGeometry x="80" y="1200" width="100" height="30" as="geometry" />
        </mxCell>
        <mxCell id="M9mfOsk55cMnhq7tO-Bw-58" value="header" style="text;html=1;strokeColor=none;fillColor=none;align=center;verticalAlign=middle;whiteSpace=wrap;rounded=0;fontStyle=1;fontSize=30;" vertex="1" parent="1">
          <mxGeometry x="450" y="1250" width="120" height="50" as="geometry" />
        </mxCell>
        <mxCell id="M9mfOsk55cMnhq7tO-Bw-65" value="스크롤 게시판" style="rounded=0;whiteSpace=wrap;html=1;fontSize=14;gradientColor=#ffffff;fontStyle=1" vertex="1" parent="1">
          <mxGeometry x="1000" y="1200" width="100" height="30" as="geometry" />
        </mxCell>
        <mxCell id="M9mfOsk55cMnhq7tO-Bw-70" value="&amp;lt; 1, 2, 3, 4, 5 &amp;gt;" style="text;html=1;strokeColor=none;fillColor=none;align=center;verticalAlign=middle;whiteSpace=wrap;rounded=0;fontSize=14;" vertex="1" parent="1">
          <mxGeometry x="450" y="1640" width="120" height="20" as="geometry" />
        </mxCell>
        <mxCell id="M9mfOsk55cMnhq7tO-Bw-73" value="글쓰기" style="rounded=0;whiteSpace=wrap;html=1;strokeColor=#000000;gradientColor=#ffffff;fontSize=14;" vertex="1" parent="1">
          <mxGeometry x="820" y="1640" width="100" height="20" as="geometry" />
        </mxCell>
        <mxCell id="M9mfOsk55cMnhq7tO-Bw-74" value="" style="rounded=0;whiteSpace=wrap;html=1;" vertex="1" parent="1">
          <mxGeometry x="1000" y="1230" width="860" height="540" as="geometry" />
        </mxCell>
        <mxCell id="M9mfOsk55cMnhq7tO-Bw-75" value="" style="rounded=0;whiteSpace=wrap;html=1;" vertex="1" parent="1">
          <mxGeometry x="1000" y="1230" width="860" height="90" as="geometry" />
        </mxCell>
        <mxCell id="M9mfOsk55cMnhq7tO-Bw-76" value="" style="rounded=0;whiteSpace=wrap;html=1;" vertex="1" parent="1">
          <mxGeometry x="1000" y="1680" width="860" height="90" as="geometry" />
        </mxCell>
        <mxCell id="M9mfOsk55cMnhq7tO-Bw-77" value="&amp;nbsp;footer" style="text;html=1;strokeColor=none;fillColor=none;align=center;verticalAlign=middle;whiteSpace=wrap;rounded=0;fontStyle=1;fontSize=30;" vertex="1" parent="1">
          <mxGeometry x="1370" y="1700" width="120" height="50" as="geometry" />
        </mxCell>
        <mxCell id="M9mfOsk55cMnhq7tO-Bw-78" value="" style="rounded=0;whiteSpace=wrap;html=1;fontSize=30;" vertex="1" parent="1">
          <mxGeometry x="1020" y="1340" width="820" height="280" as="geometry" />
        </mxCell>
        <mxCell id="M9mfOsk55cMnhq7tO-Bw-80" value="header" style="text;html=1;strokeColor=none;fillColor=none;align=center;verticalAlign=middle;whiteSpace=wrap;rounded=0;fontStyle=1;fontSize=30;" vertex="1" parent="1">
          <mxGeometry x="1370" y="1250" width="120" height="50" as="geometry" />
        </mxCell>
        <mxCell id="M9mfOsk55cMnhq7tO-Bw-82" value="글쓰기" style="rounded=0;whiteSpace=wrap;html=1;strokeColor=#000000;gradientColor=#ffffff;fontSize=14;" vertex="1" parent="1">
          <mxGeometry x="1740" y="1640" width="100" height="20" as="geometry" />
        </mxCell>
        <mxCell id="M9mfOsk55cMnhq7tO-Bw-83" value="" style="rounded=0;whiteSpace=wrap;html=1;strokeColor=#666666;fontSize=14;fillColor=#f5f5f5;fontColor=#333333;" vertex="1" parent="1">
          <mxGeometry x="1820" y="1340" width="20" height="280" as="geometry" />
        </mxCell>
        <mxCell id="M9mfOsk55cMnhq7tO-Bw-84" value="글쓰기" style="rounded=0;whiteSpace=wrap;html=1;fontSize=14;gradientColor=#ffffff;fontStyle=1" vertex="1" parent="1">
          <mxGeometry x="1920" y="1200" width="100" height="30" as="geometry" />
        </mxCell>
        <mxCell id="M9mfOsk55cMnhq7tO-Bw-85" value="" style="rounded=0;whiteSpace=wrap;html=1;" vertex="1" parent="1">
          <mxGeometry x="1920" y="1230" width="860" height="540" as="geometry" />
        </mxCell>
        <mxCell id="M9mfOsk55cMnhq7tO-Bw-86" value="" style="rounded=0;whiteSpace=wrap;html=1;" vertex="1" parent="1">
          <mxGeometry x="1920" y="1230" width="860" height="90" as="geometry" />
        </mxCell>
        <mxCell id="M9mfOsk55cMnhq7tO-Bw-87" value="" style="rounded=0;whiteSpace=wrap;html=1;" vertex="1" parent="1">
          <mxGeometry x="1920" y="1680" width="860" height="90" as="geometry" />
        </mxCell>
        <mxCell id="M9mfOsk55cMnhq7tO-Bw-88" value="&amp;nbsp;footer" style="text;html=1;strokeColor=none;fillColor=none;align=center;verticalAlign=middle;whiteSpace=wrap;rounded=0;fontStyle=1;fontSize=30;" vertex="1" parent="1">
          <mxGeometry x="2290" y="1700" width="120" height="50" as="geometry" />
        </mxCell>
        <mxCell id="M9mfOsk55cMnhq7tO-Bw-89" value="내용" style="rounded=0;whiteSpace=wrap;html=1;fontSize=30;" vertex="1" parent="1">
          <mxGeometry x="1940" y="1410" width="820" height="230" as="geometry" />
        </mxCell>
        <mxCell id="M9mfOsk55cMnhq7tO-Bw-90" value="header" style="text;html=1;strokeColor=none;fillColor=none;align=center;verticalAlign=middle;whiteSpace=wrap;rounded=0;fontStyle=1;fontSize=30;" vertex="1" parent="1">
          <mxGeometry x="2290" y="1250" width="120" height="50" as="geometry" />
        </mxCell>
        <mxCell id="M9mfOsk55cMnhq7tO-Bw-91" value="등록" style="rounded=0;whiteSpace=wrap;html=1;strokeColor=#000000;gradientColor=#ffffff;fontSize=14;" vertex="1" parent="1">
          <mxGeometry x="2660" y="1650" width="100" height="20" as="geometry" />
        </mxCell>
        <mxCell id="M9mfOsk55cMnhq7tO-Bw-93" value="제목" style="rounded=0;whiteSpace=wrap;html=1;strokeColor=#000000;gradientColor=#ffffff;fontSize=30;verticalAlign=middle;" vertex="1" parent="1">
          <mxGeometry x="1940" y="1340" width="820" height="60" as="geometry" />
        </mxCell>
        <mxCell id="M9mfOsk55cMnhq7tO-Bw-95" value="" style="rounded=0;whiteSpace=wrap;html=1;" vertex="1" parent="1">
          <mxGeometry x="1926.25" y="800" width="860" height="90" as="geometry" />
        </mxCell>
        <mxCell id="M9mfOsk55cMnhq7tO-Bw-96" value="&lt;font style=&quot;font-size: 30px&quot;&gt;Logo&lt;/font&gt;" style="text;html=1;strokeColor=none;fillColor=none;align=center;verticalAlign=middle;whiteSpace=wrap;rounded=0;fontStyle=1" vertex="1" parent="1">
          <mxGeometry x="1956.25" y="820" width="100" height="50" as="geometry" />
        </mxCell>
        <mxCell id="M9mfOsk55cMnhq7tO-Bw-103" value="회원가입 버튼 누를시" style="rounded=0;whiteSpace=wrap;html=1;fontSize=14;gradientColor=#ffffff;" vertex="1" parent="1">
          <mxGeometry x="1926.25" y="770" width="170" height="30" as="geometry" />
        </mxCell>
        <mxCell id="M9mfOsk55cMnhq7tO-Bw-107" value="로그인" style="text;html=1;strokeColor=none;fillColor=none;align=center;verticalAlign=middle;whiteSpace=wrap;rounded=0;" vertex="1" parent="1">
          <mxGeometry x="2596.25" y="860" width="40" height="20" as="geometry" />
        </mxCell>
        <mxCell id="M9mfOsk55cMnhq7tO-Bw-108" value="회원가입" style="text;html=1;strokeColor=none;fillColor=none;align=center;verticalAlign=middle;whiteSpace=wrap;rounded=0;" vertex="1" parent="1">
          <mxGeometry x="2656.25" y="860" width="70" height="20" as="geometry" />
        </mxCell>
        <mxCell id="M9mfOsk55cMnhq7tO-Bw-109" value="페이징 게시판" style="text;html=1;strokeColor=none;fillColor=none;align=center;verticalAlign=middle;whiteSpace=wrap;rounded=0;" vertex="1" parent="1">
          <mxGeometry x="2476.25" y="860" width="90" height="20" as="geometry" />
        </mxCell>
        <mxCell id="M9mfOsk55cMnhq7tO-Bw-110" value="" style="rounded=0;whiteSpace=wrap;html=1;strokeColor=#000000;gradientColor=#ffffff;fontSize=30;" vertex="1" parent="1">
          <mxGeometry x="2326.25" y="890" width="460" height="250" as="geometry" />
        </mxCell>
        <mxCell id="M9mfOsk55cMnhq7tO-Bw-112" value="이메일" style="rounded=0;whiteSpace=wrap;html=1;strokeColor=#000000;gradientColor=#ffffff;fontSize=20;" vertex="1" parent="1">
          <mxGeometry x="2446.25" y="910" width="310" height="30" as="geometry" />
        </mxCell>
        <mxCell id="M9mfOsk55cMnhq7tO-Bw-113" value="비밀번호" style="rounded=0;whiteSpace=wrap;html=1;strokeColor=#000000;gradientColor=#ffffff;fontSize=20;" vertex="1" parent="1">
          <mxGeometry x="2446.25" y="1000" width="310" height="30" as="geometry" />
        </mxCell>
        <mxCell id="M9mfOsk55cMnhq7tO-Bw-114" value="비번확인" style="rounded=0;whiteSpace=wrap;html=1;strokeColor=#000000;gradientColor=#ffffff;fontSize=20;" vertex="1" parent="1">
          <mxGeometry x="2446.25" y="1045" width="310" height="30" as="geometry" />
        </mxCell>
        <mxCell id="M9mfOsk55cMnhq7tO-Bw-115" value="닉네임" style="rounded=0;whiteSpace=wrap;html=1;strokeColor=#000000;gradientColor=#ffffff;fontSize=20;" vertex="1" parent="1">
          <mxGeometry x="2446.25" y="955" width="310" height="30" as="geometry" />
        </mxCell>
        <mxCell id="M9mfOsk55cMnhq7tO-Bw-116" value="회원가입" style="rounded=0;whiteSpace=wrap;html=1;strokeColor=#000000;gradientColor=#ffffff;fontSize=20;" vertex="1" parent="1">
          <mxGeometry x="2656.25" y="1090" width="100" height="30" as="geometry" />
        </mxCell>
        <mxCell id="M9mfOsk55cMnhq7tO-Bw-118" value="" style="rounded=0;whiteSpace=wrap;html=1;" vertex="1" parent="1">
          <mxGeometry x="1920" y="550" width="860" height="90" as="geometry" />
        </mxCell>
        <mxCell id="M9mfOsk55cMnhq7tO-Bw-119" value="&lt;font style=&quot;font-size: 30px&quot;&gt;Logo&lt;/font&gt;" style="text;html=1;strokeColor=none;fillColor=none;align=center;verticalAlign=middle;whiteSpace=wrap;rounded=0;fontStyle=1" vertex="1" parent="1">
          <mxGeometry x="1950" y="570" width="100" height="50" as="geometry" />
        </mxCell>
        <mxCell id="M9mfOsk55cMnhq7tO-Bw-120" value="로그인" style="text;html=1;strokeColor=none;fillColor=none;align=center;verticalAlign=middle;whiteSpace=wrap;rounded=0;" vertex="1" parent="1">
          <mxGeometry x="2590" y="610" width="40" height="20" as="geometry" />
        </mxCell>
        <mxCell id="M9mfOsk55cMnhq7tO-Bw-121" value="회원가입" style="text;html=1;strokeColor=none;fillColor=none;align=center;verticalAlign=middle;whiteSpace=wrap;rounded=0;" vertex="1" parent="1">
          <mxGeometry x="2650" y="610" width="70" height="20" as="geometry" />
        </mxCell>
        <mxCell id="M9mfOsk55cMnhq7tO-Bw-122" value="페이징 게시판" style="text;html=1;strokeColor=none;fillColor=none;align=center;verticalAlign=middle;whiteSpace=wrap;rounded=0;" vertex="1" parent="1">
          <mxGeometry x="2470" y="610" width="90" height="20" as="geometry" />
        </mxCell>
        <mxCell id="M9mfOsk55cMnhq7tO-Bw-123" value="" style="rounded=0;whiteSpace=wrap;html=1;strokeColor=#000000;gradientColor=#ffffff;fontSize=20;" vertex="1" parent="1">
          <mxGeometry x="2530" y="640" width="250" height="130" as="geometry" />
        </mxCell>
        <mxCell id="M9mfOsk55cMnhq7tO-Bw-124" value="" style="rounded=0;whiteSpace=wrap;html=1;strokeColor=#000000;gradientColor=#ffffff;fontSize=20;" vertex="1" parent="1">
          <mxGeometry x="2620" y="650" width="150" height="30" as="geometry" />
        </mxCell>
        <mxCell id="M9mfOsk55cMnhq7tO-Bw-125" value="" style="rounded=0;whiteSpace=wrap;html=1;strokeColor=#000000;gradientColor=#ffffff;fontSize=20;" vertex="1" parent="1">
          <mxGeometry x="2620" y="690" width="150" height="30" as="geometry" />
        </mxCell>
        <mxCell id="M9mfOsk55cMnhq7tO-Bw-127" value="로그인" style="rounded=0;whiteSpace=wrap;html=1;strokeColor=#000000;gradientColor=#ffffff;fontSize=14;" vertex="1" parent="1">
          <mxGeometry x="2690" y="740" width="80" height="20" as="geometry" />
        </mxCell>
        <mxCell id="M9mfOsk55cMnhq7tO-Bw-128" value="이메일" style="text;html=1;strokeColor=none;fillColor=none;align=center;verticalAlign=middle;whiteSpace=wrap;rounded=0;fontSize=14;" vertex="1" parent="1">
          <mxGeometry x="2540" y="655" width="70" height="20" as="geometry" />
        </mxCell>
        <mxCell id="M9mfOsk55cMnhq7tO-Bw-129" value="비밀번호" style="text;html=1;strokeColor=none;fillColor=none;align=center;verticalAlign=middle;whiteSpace=wrap;rounded=0;fontSize=14;" vertex="1" parent="1">
          <mxGeometry x="2540" y="695" width="70" height="20" as="geometry" />
        </mxCell>
        <mxCell id="M9mfOsk55cMnhq7tO-Bw-131" value="로그인버튼 누를시" style="rounded=0;whiteSpace=wrap;html=1;fontSize=14;gradientColor=#ffffff;" vertex="1" parent="1">
          <mxGeometry x="1920" y="520" width="140" height="30" as="geometry" />
        </mxCell>
        <mxCell id="M9mfOsk55cMnhq7tO-Bw-132" value="이메일" style="text;html=1;strokeColor=none;fillColor=none;align=center;verticalAlign=middle;whiteSpace=wrap;rounded=0;fontSize=14;" vertex="1" parent="1">
          <mxGeometry x="2356.25" y="915" width="50" height="20" as="geometry" />
        </mxCell>
        <mxCell id="M9mfOsk55cMnhq7tO-Bw-133" value="닉네임" style="text;html=1;strokeColor=none;fillColor=none;align=center;verticalAlign=middle;whiteSpace=wrap;rounded=0;fontSize=14;" vertex="1" parent="1">
          <mxGeometry x="2356.25" y="960" width="50" height="20" as="geometry" />
        </mxCell>
        <mxCell id="M9mfOsk55cMnhq7tO-Bw-134" value="비밀번호" style="text;html=1;strokeColor=none;fillColor=none;align=center;verticalAlign=middle;whiteSpace=wrap;rounded=0;fontSize=14;" vertex="1" parent="1">
          <mxGeometry x="2351.25" y="1005" width="60" height="20" as="geometry" />
        </mxCell>
        <mxCell id="M9mfOsk55cMnhq7tO-Bw-135" value="비번확인" style="text;html=1;strokeColor=none;fillColor=none;align=center;verticalAlign=middle;whiteSpace=wrap;rounded=0;fontSize=14;" vertex="1" parent="1">
          <mxGeometry x="2351.25" y="1050" width="60" height="20" as="geometry" />
        </mxCell>
        <mxCell id="M9mfOsk55cMnhq7tO-Bw-136" value="" style="endArrow=classic;html=1;fontSize=14;" edge="1" parent="1">
          <mxGeometry width="50" height="50" relative="1" as="geometry">
            <mxPoint x="2796.25" y="900" as="sourcePoint" />
            <mxPoint x="2796.25" y="1130" as="targetPoint" />
          </mxGeometry>
        </mxCell>
        <mxCell id="M9mfOsk55cMnhq7tO-Bw-137" value="" style="endArrow=classic;html=1;fontSize=14;" edge="1" parent="1">
          <mxGeometry width="50" height="50" relative="1" as="geometry">
            <mxPoint x="2790" y="650.0000000000002" as="sourcePoint" />
            <mxPoint x="2790" y="760" as="targetPoint" />
          </mxGeometry>
        </mxCell>
        <mxCell id="M9mfOsk55cMnhq7tO-Bw-138" value="닫기" style="rounded=0;whiteSpace=wrap;html=1;strokeColor=#000000;gradientColor=#ffffff;fontSize=14;" vertex="1" parent="1">
          <mxGeometry x="2550" y="740" width="80" height="20" as="geometry" />
        </mxCell>
        <mxCell id="M9mfOsk55cMnhq7tO-Bw-139" value="닫기" style="rounded=0;whiteSpace=wrap;html=1;strokeColor=#000000;gradientColor=#ffffff;fontSize=20;" vertex="1" parent="1">
          <mxGeometry x="2351.25" y="1090" width="95" height="30" as="geometry" />
        </mxCell>
      </root>
    </mxGraphModel>
  </diagram>
</mxfile>
